<svg xmlns="http://www.w3.org/2000/svg" xmlns:xlink="http://www.w3.org/1999/xlink" id="Layer_1" x="0" y="0" version="1.1" viewBox="0 0 512 512" xml:space="preserve" style="enable-background:new 0 0 512 512"><rect style="fill:#ff4b55" width="512" height="170.09"/><rect style="fill:#464655" width="512" height="170.09" y="341.91"/><rect style="fill:#f5f5f5" width="512" height="171.82" y="170.09"/><g><path style="fill:#73af00" d="M150.03,223.314l7.36,22.068l23.262,0.18c3.012,0.023,4.261,3.867,1.838,5.656l-18.714,13.819 l7.017,22.179c0.908,2.872-2.361,5.247-4.811,3.496l-18.926-13.527l-18.926,13.527c-2.45,1.751-5.72-0.624-4.811-3.496 l7.017-22.179l-18.714-13.819c-2.423-1.789-1.174-5.633,1.838-5.656l23.262-0.18l7.36-22.068 C145.036,220.457,149.077,220.457,150.03,223.314z"/><path style="fill:#73af00" d="M367.917,223.314l7.36,22.068l23.262,0.18c3.012,0.023,4.261,3.867,1.838,5.656l-18.714,13.819 l7.017,22.179c0.908,2.872-2.361,5.247-4.811,3.496l-18.926-13.527l-18.926,13.527c-2.45,1.751-5.72-0.624-4.811-3.496 l7.017-22.179l-18.714-13.819c-2.423-1.789-1.174-5.633,1.838-5.656l23.262-0.18l7.36-22.068 C362.923,220.457,366.964,220.457,367.917,223.314z"/></g></svg>