<svg xmlns="http://www.w3.org/2000/svg" xmlns:xlink="http://www.w3.org/1999/xlink" id="Layer_1" x="0" y="0" version="1.1" viewBox="0 0 512 512" xml:space="preserve" style="enable-background:new 0 0 512 512"><g><rect style="fill:#4173cd" width="512" height="170.67"/><rect style="fill:#4173cd" width="512" height="170.67" y="341.33"/></g><rect style="fill:#f5f5f5" width="512" height="170.67" y="170.67"/><g><path style="fill:#4173cd" d="M257.948,233.988l4.822,14.458l15.241,0.118c1.973,0.015,2.791,2.533,1.204,3.706l-12.261,9.054 l4.597,14.531c0.595,1.881-1.547,3.438-3.152,2.29l-12.4-8.863l-12.399,8.863c-1.605,1.147-3.747-0.409-3.152-2.29l4.597-14.531 l-12.261-9.054c-1.587-1.172-0.769-3.69,1.204-3.706l15.241-0.118l4.822-14.458C254.676,232.116,257.324,232.116,257.948,233.988z"/><path style="fill:#4173cd" d="M120.316,272.792l4.822,14.458l15.241,0.118c1.973,0.015,2.791,2.533,1.204,3.706l-12.261,9.054 l4.597,14.531c0.595,1.881-1.547,3.438-3.152,2.29l-12.399-8.863l-12.399,8.863c-1.605,1.147-3.747-0.409-3.152-2.29l4.597-14.531 l-12.261-9.054c-1.587-1.172-0.769-3.69,1.204-3.706l15.241-0.118l4.822-14.458C117.044,270.92,119.692,270.92,120.316,272.792z"/><path style="fill:#4173cd" d="M120.316,195.184l4.822,14.458l15.241,0.118c1.973,0.015,2.791,2.533,1.204,3.706l-12.261,9.054 l4.597,14.531c0.595,1.881-1.547,3.438-3.152,2.29l-12.399-8.863l-12.399,8.863c-1.605,1.147-3.747-0.409-3.152-2.29l4.597-14.531 l-12.261-9.054c-1.587-1.172-0.769-3.69,1.204-3.706l15.241-0.118l4.822-14.458C117.044,193.312,119.692,193.312,120.316,195.184z"/><path style="fill:#4173cd" d="M395.58,272.792l4.822,14.458l15.241,0.118c1.973,0.015,2.791,2.533,1.204,3.706l-12.261,9.054 l4.597,14.531c0.595,1.881-1.547,3.438-3.152,2.29l-12.4-8.863l-12.4,8.863c-1.605,1.147-3.747-0.409-3.152-2.29l4.597-14.531 l-12.261-9.054c-1.587-1.172-0.769-3.69,1.204-3.706l15.241-0.118l4.822-14.458C392.308,270.92,394.956,270.92,395.58,272.792z"/><path style="fill:#4173cd" d="M395.58,195.184l4.822,14.458l15.241,0.118c1.973,0.015,2.791,2.533,1.204,3.706l-12.261,9.054 l4.597,14.531c0.595,1.881-1.547,3.438-3.152,2.29l-12.4-8.863l-12.4,8.863c-1.605,1.147-3.747-0.409-3.152-2.29l4.597-14.531 l-12.261-9.054c-1.587-1.172-0.769-3.69,1.204-3.706l15.241-0.118l4.822-14.458C392.308,193.312,394.956,193.312,395.58,195.184z"/></g></svg>