<svg xmlns="http://www.w3.org/2000/svg" xmlns:xlink="http://www.w3.org/1999/xlink" id="Layer_1" x="0" y="0" version="1.1" viewBox="0 0 512 512" xml:space="preserve" style="enable-background:new 0 0 512 512"><rect style="fill:#41479b" width="512" height="512"/><g><rect style="fill:#f5f5f5" width="512" height="26.947" y="67.37"/><rect style="fill:#f5f5f5" width="512" height="26.947" y="417.68"/></g><rect style="fill:#ff4b55" width="512" height="323.37" y="94.32"/><circle style="fill:#f5f5f5" cx="163.21" cy="256" r="107.79"/><path style="fill:#ff4b55" d="M166.081,157.866l21.623,64.835l68.344,0.53c2.907,0.023,4.113,3.733,1.774,5.46l-54.98,40.6 l20.616,65.163c0.877,2.772-2.279,5.065-4.644,3.374l-55.603-39.743l-55.603,39.743c-2.365,1.691-5.521-0.602-4.644-3.374 l20.616-65.163l-54.98-40.6c-2.339-1.727-1.133-5.437,1.774-5.46l68.344-0.53l21.623-64.835 C161.26,155.108,165.161,155.108,166.081,157.866z"/></svg>