<svg xmlns="http://www.w3.org/2000/svg" xmlns:xlink="http://www.w3.org/1999/xlink" id="Layer_1" x="0" y="0" version="1.1" viewBox="0 0 512 512" xml:space="preserve" style="enable-background:new 0 0 512 512"><rect style="fill:#ffe15a" width="512" height="128" y="384"/><rect style="fill:#73af00" width="512" height="128" y="256"/><rect style="fill:#f5f5f5" width="512" height="128" y="128"/><rect style="fill:#41479b" width="512" height="128"/><rect style="fill:#ff4b55" width="128" height="512" x="192"/><path style="fill:#ffe15a" d="M91.062,17.245l11.243,33.71l35.535,0.275c2.753,0.021,3.895,3.535,1.68,5.17l-28.586,21.11 l10.719,33.881c0.83,2.625-2.158,4.796-4.398,3.195l-28.91-20.664l-28.91,20.664c-2.24,1.601-5.228-0.57-4.398-3.195L65.755,77.51 L37.169,56.4c-2.215-1.635-1.073-5.149,1.68-5.17l35.535-0.275l11.243-33.71C86.497,14.633,90.191,14.633,91.062,17.245z"/></svg>