<svg xmlns="http://www.w3.org/2000/svg" xmlns:xlink="http://www.w3.org/1999/xlink" id="Layer_1" x="0" y="0" version="1.1" viewBox="0 0 512 512" xml:space="preserve" style="enable-background:new 0 0 512 512"><rect style="fill:#ff4b55" width="512" height="170.67"/><rect style="fill:#73af00" width="512" height="170.67" y="341.33"/><rect style="fill:#ffe15a" width="512" height="170.67" y="170.67"/><path style="fill:#464655" d="M261.681,191.755l14.061,42.161l44.443,0.345c5.754,0.045,8.14,7.388,3.511,10.806l-35.753,26.402 l13.406,42.374c1.736,5.486-4.511,10.024-9.192,6.678L256,294.677l-36.158,25.844c-4.681,3.346-10.928-1.192-9.192-6.678 l13.406-42.374l-35.753-26.402c-4.629-3.418-2.243-10.761,3.511-10.806l44.443-0.345l14.061-42.161 C252.14,186.297,259.86,186.297,261.681,191.755z"/></svg>