<svg xmlns="http://www.w3.org/2000/svg" xmlns:xlink="http://www.w3.org/1999/xlink" id="Layer_1" x="0" y="0" version="1.1" viewBox="0 0 512.001 512.001" xml:space="preserve" style="enable-background:new 0 0 512.001 512.001"><rect style="fill:#41479b" width="512" height="256" x="0" y="256.001"/><rect style="fill:#ff4b55" width="512" height="256" x="0" y=".001"/><rect style="fill:#f5f5f5" width="362.037" height="362.037" x="74.983" y="74.98" transform="matrix(0.7071 -0.7071 0.7071 0.7071 -106.0373 256.0002)"/><path style="fill:#ffe15a" d="M258.647,158.705l21.19,60.962l64.527,1.315c2.657,0.054,3.753,3.43,1.636,5.035l-51.43,38.992 l18.689,61.775c0.769,2.543-2.102,4.63-4.283,3.112L256,293.032l-52.976,36.864c-2.181,1.518-5.053-0.569-4.283-3.112l18.689-61.775 L166,226.017c-2.117-1.605-1.021-4.981,1.636-5.035l64.527-1.315l21.19-60.962C254.225,156.195,257.775,156.195,258.647,158.705z"/></svg>