<svg xmlns="http://www.w3.org/2000/svg" xmlns:xlink="http://www.w3.org/1999/xlink" id="Layer_1" x="0" y="0" version="1.1" viewBox="0 0 512 512" xml:space="preserve" style="enable-background:new 0 0 512 512"><rect style="fill:#82afff" width="512" height="256"/><rect style="fill:#73af00" width="512" height="256" y="256"/><polygon style="fill:#f5f5f5" points="0 512 256 256 0 0"/><path style="fill:#ff4b55" d="M60.158,311.88l12.125-41.391l-35.237-24.871c-1.932-1.364-1.016-4.401,1.347-4.47l43.112-1.259 L94.27,198.69c0.7-2.259,3.872-2.327,4.668-0.1l14.52,40.613l43.126-0.59c2.364-0.032,3.409,2.963,1.538,4.408l-34.138,26.359 l13.888,40.833c0.761,2.239-1.765,4.158-3.718,2.825l-35.618-24.322l-34.543,25.827C62.099,315.958,59.493,314.149,60.158,311.88z"/></svg>