<svg xmlns="http://www.w3.org/2000/svg" xmlns:xlink="http://www.w3.org/1999/xlink" id="Layer_1" x="0" y="0" version="1.1" viewBox="0 0 512 512" xml:space="preserve" style="enable-background:new 0 0 512 512"><g><rect style="fill:#41479b" width="512" height="102.4"/><rect style="fill:#41479b" width="512" height="102.4" y="409.6"/></g><rect style="fill:#f5f5f5" width="512" height="102.4" y="102.4"/><rect style="fill:#41479b" width="512" height="102.4" y="204.8"/><rect style="fill:#f5f5f5" width="512" height="102.4" y="307.2"/><path style="fill:#ff4b55" d="M0,512l253.908-250.09c2.789-2.747,2.789-9.074,0-11.821L0,0V512z"/><path style="fill:#f5f5f5" d="M102.751,191.042l13.834,41.479l43.723,0.339c3.387,0.026,4.792,4.349,2.067,6.361l-35.174,25.974 l13.189,41.688c1.022,3.23-2.655,5.901-5.411,3.932l-35.572-25.426l-35.572,25.426c-2.756,1.97-6.433-0.702-5.411-3.932 l13.189-41.688l-35.174-25.974c-2.725-2.012-1.32-6.335,2.067-6.361l43.723-0.339l13.834-41.479 C97.134,187.828,101.679,187.828,102.751,191.042z"/></svg>