<svg xmlns="http://www.w3.org/2000/svg" xmlns:xlink="http://www.w3.org/1999/xlink" id="Layer_1" x="0" y="0" version="1.1" viewBox="0 0 512 512" xml:space="preserve" style="enable-background:new 0 0 512 512"><g><rect style="fill:#f5f5f5" width="512" height="56.807" y="57.177"/><rect style="fill:#f5f5f5" width="512" height="56.807" y="170.787"/><rect style="fill:#f5f5f5" width="512" height="56.807" y="284.397"/></g><rect style="fill:#41479b" width="512" height="56.807" y="341.207"/><rect style="fill:#f5f5f5" width="512" height="56.807" y="398.017"/><g><rect style="fill:#41479b" width="512" height="56.807" y="454.827"/><polygon style="fill:#41479b" points="512 57.173 512 .366 0 .366 0 113.98 0 170.788 0 284.402 512 284.402 512 227.595 269.087 227.595 269.087 170.788 512 170.788 512 113.98 269.087 113.98 269.087 57.173"/></g><polygon style="fill:#f5f5f5" points="269.087 113.98 162.946 113.98 162.946 .366 106.14 .366 106.14 113.98 0 113.98 0 170.788 106.14 170.788 106.14 284.402 162.946 284.402 162.946 170.788 269.087 170.788"/></svg>