<svg xmlns="http://www.w3.org/2000/svg" xmlns:xlink="http://www.w3.org/1999/xlink" id="Layer_1" x="0" y="0" version="1.1" viewBox="0 0 512 512" xml:space="preserve" style="enable-background:new 0 0 512 512"><g><rect style="fill:#4173cd" width="508.71" height="254.36" x="3.286" y="1.641"/><path style="fill:#4173cd" d="M3.286,255.998H512v240.97c0,7.393-5.993,13.388-13.388,13.388H3.286c-7.393,0,0-5.993,0-13.388 V255.998z"/></g><rect style="fill:#ffe15a" width="508.71" height="127.18" x="3.286" y="255.998"/><rect style="fill:#73af00" width="508.71" height="127.18" x="3.286" y="383.178"/><g><path style="fill:#ffe15a" d="M430.429,137.891l54.797-9.071l-54.797-9.071l47.155-29.351l-54.099,12.59l32.333-45.162 l-45.162,32.333l12.589-54.099l-29.351,47.155l-9.071-54.797l-9.071,54.797L346.4,36.059l12.589,54.099l-45.162-32.333 l32.333,45.162l-54.099-12.59l47.155,29.351l-54.797,9.071l54.797,9.071l-47.154,29.351l54.098-12.589l-32.332,45.162 l45.162-32.333l-12.589,54.098l29.351-47.154l9.071,54.797l9.071-54.797l29.351,47.154l-12.589-54.098l45.162,32.333 l-32.332-45.162l54.098,12.589L430.429,137.891z M384.822,162.287c-18.484,0-33.468-14.984-33.468-33.468 s14.984-33.468,33.468-33.468s33.468,14.984,33.468,33.468S403.305,162.287,384.822,162.287z"/><circle style="fill:#ffe15a" cx="384.82" cy="128.818" r="25.1"/></g></svg>